<svg xmlns="http://www.w3.org/2000/svg" viewBox="0 0 57.33 61.06"><defs><style>.cls-1,.cls-3{fill:none;stroke:#e15049;}.cls-1{stroke-miterlimit:10;stroke-width:2px;}.cls-2{fill:#e15049;}.cls-3{stroke-linecap:round;stroke-linejoin:round;stroke-width:1.25px;stroke-dasharray:0 3.13;}</style></defs><title>ic-finish-complete</title><g id="Layer_2" data-name="Layer 2"><g id="Capa_1" data-name="Capa 1"><path class="cls-1" d="M39.23,31.2H50.84a1.63,1.63,0,0,1,1.64,1.64V56.27H4.85V32.84A1.64,1.64,0,0,1,6.49,31.2H18.1"/><path class="cls-1" d="M36.62,34.27H47.9A1.14,1.14,0,0,1,49,35.41V56.27H8.29V35.41a1.14,1.14,0,0,1,1.14-1.14H20.72"/><path class="cls-1" d="M44.54,23.88a12.63,12.63,0,0,1-2.34,3.83h0L28.67,43.61,15.13,27.71a12.76,12.76,0,0,1-2.34-3.84,16.9,16.9,0,0,1,2-15.59,16.91,16.91,0,0,1,27.8,0A16.94,16.94,0,0,1,44.54,23.88Z"/><path class="cls-2" d="M33.42,22.92V17l1.11,1,1-1.19-6.91-6.06-6.91,6.06,1,1.18,1.12-1v5.92ZM25.5,15.61l3.17-2.77,3.16,2.77v5.73H25.5V15.61Z"/><circle class="cls-3" cx="28.67" cy="18.14" r="11.47"/><path class="cls-1" d="M1,56.48H56.33a0,0,0,0,1,0,0v1.79a1.79,1.79,0,0,1-1.79,1.79H2.79A1.79,1.79,0,0,1,1,58.27V56.48a0,0,0,0,1,0,0Z"/><rect class="cls-2" x="22.86" y="56.27" width="11.62" height="1.99"/></g></g></svg>