<svg xmlns="http://www.w3.org/2000/svg" viewBox="0 0 52.79 42.54"><defs><style>.cls-1{fill:none;stroke:#e15049;stroke-miterlimit:10;stroke-width:2px;}</style></defs><title>ic-list-house</title><g id="Layer_2" data-name="Layer 2"><g id="Capa_1" data-name="Capa 1"><path class="cls-1" d="M9.68,5.34H47.47a4.33,4.33,0,0,1,4.32,4.32V37.21a4.33,4.33,0,0,1-4.32,4.33H5.59A4.59,4.59,0,0,1,1,37V10.87"/><path class="cls-1" d="M5.34,1A4.34,4.34,0,0,0,1,5.34V36.79a4.34,4.34,0,0,1,8.68,0V5.34A4.34,4.34,0,0,0,5.34,1Z"/><polygon class="cls-1" points="43.83 30.49 27.83 30.49 27.83 20.06 35.83 14.39 43.83 20.06 43.83 30.49"/><rect class="cls-1" x="33.58" y="23.82" width="4.5" height="6.67"/><line class="cls-1" x1="15.33" y1="15.65" x2="22" y2="15.65"/><line class="cls-1" x1="15.33" y1="20.84" x2="22" y2="20.84"/><line class="cls-1" x1="15.33" y1="26.03" x2="22" y2="26.03"/><line class="cls-1" x1="15.33" y1="31.23" x2="22" y2="31.23"/></g></g></svg>