<svg xmlns="http://www.w3.org/2000/svg" width="69" height="58" viewBox="0 0 69 58">
  <metadata><?xpacket begin="﻿" id="W5M0MpCehiHzreSzNTczkc9d"?>
<x:xmpmeta xmlns:x="adobe:ns:meta/" x:xmptk="Adobe XMP Core 5.6-c142 79.160924, 2017/07/13-01:06:39        ">
   <rdf:RDF xmlns:rdf="http://www.w3.org/1999/02/22-rdf-syntax-ns#">
      <rdf:Description rdf:about=""/>
   </rdf:RDF>
</x:xmpmeta>
                                                                                                    
                                                                                                    
                                                                                                    
                                                                                                    
                                                                                                    
                                                                                                    
                                                                                                    
                                                                                                    
                                                                                                    
                                                                                                    
                                                                                                    
                                                                                                    
                                                                                                    
                                                                                                    
                                                                                                    
                                                                                                    
                                                                                                    
                                                                                                    
                                                                                                    
                                                                                                    
                           
<?xpacket end="w"?></metadata>
<defs>
    <style>
      .cls-1 {
        fill: #72d0f4;
        fill-rule: evenodd;
      }
    </style>
  </defs>
  <path class="cls-1" d="M1507.34,851.964a9.524,9.524,0,0,0,9.51-9.515A9.47,9.47,0,1,0,1507.34,851.964Zm0-16.879a7.4,7.4,0,1,1-7.42,7.364A7.424,7.424,0,0,1,1507.34,835.085Zm-2.27,11.926a1.184,1.184,0,0,0,.45.131h0c0.13,0.065.33,0.065,0.52,0.13a1.458,1.458,0,0,0,.52.065h0.13v1.3h1.57v-1.368h0.06a2.308,2.308,0,0,0,.59-0.261,2.484,2.484,0,0,0,.52-0.326h0a2.8,2.8,0,0,0,.39-0.456,3.653,3.653,0,0,0,.32-0.521c0.07-.2.13-0.391,0.2-0.587h0a2.17,2.17,0,0,0,.06-0.651h0a1.555,1.555,0,0,0-.06-0.522h0a1.862,1.862,0,0,0-.2-0.521,1.518,1.518,0,0,0-.26-0.456h0c-0.13-.131-0.19-0.261-0.32-0.391a1.14,1.14,0,0,0-.46-0.326,1.611,1.611,0,0,0-.45-0.261c-0.2-.065-0.33-0.2-0.52-0.26a4.3,4.3,0,0,1-.52-0.2h0a0.52,0.52,0,0,1-.27-0.13c-0.06-.065-0.19-0.065-0.26-0.131h0c-0.06-.065-0.19-0.065-0.26-0.13h0c-0.06-.065-0.13-0.13-0.19-0.195h0a0.327,0.327,0,0,1-.13-0.261,0.372,0.372,0,0,1-.07-0.261V840.1c0-.065.07-0.195,0.07-0.26h0c0.06-.066.06-0.2,0.13-0.261s0.13-.13.19-0.2a0.522,0.522,0,0,1,.33-0.13h0a0.586,0.586,0,0,1,.33-0.065h0.39a0.569,0.569,0,0,1,.32.065,3.2,3.2,0,0,1,.33.065h0c0.06,0,.19.065,0.26,0.065h0a1.585,1.585,0,0,1,.26.066l0.32,0.13,0.07-.391,0.13-1.043v-0.26l-0.26-.066c-0.07,0-.2-0.065-0.26-0.065h0a1.6,1.6,0,0,0-.26-0.065,3.2,3.2,0,0,0-.33-0.065c-0.13,0-.19-0.065-0.32-0.065h-0.07v-1.238h-1.56v1.3h-0.07a2.249,2.249,0,0,0-.58.261h0a1.148,1.148,0,0,0-.46.325h0a2.849,2.849,0,0,0-.39.457,1.38,1.38,0,0,0-.26.521c-0.06.195-.13,0.391-0.19,0.586a2.075,2.075,0,0,0-.07.652h0a1.345,1.345,0,0,0,.07.522,1.578,1.578,0,0,0,.19.521h0c0.07,0.13.2,0.326,0.26,0.456h0c0.13,0.13.2,0.261,0.33,0.391h0a1.188,1.188,0,0,0,.45.326,1.682,1.682,0,0,0,.46.261,4.184,4.184,0,0,1,.52.26h0a4.84,4.84,0,0,1,.52.2h0a0.493,0.493,0,0,1,.26.13c0.07,0.065.2,0.065,0.26,0.13a0.351,0.351,0,0,0,.2.131c0.06,0.065.13,0.13,0.19,0.195a0.74,0.74,0,0,1,.13.261h0a2.663,2.663,0,0,1,.07.326h0v0.326a0.532,0.532,0,0,1-.13.26h0c-0.07.066-.13,0.131-0.2,0.2h0a0.832,0.832,0,0,1-.26.195h0c-0.06.066-.19,0.066-0.26,0.131h0a2.725,2.725,0,0,1-.33.065h-0.84a3.2,3.2,0,0,1-.33-0.065,0.912,0.912,0,0,1-.39-0.131c-0.13-.065-0.26-0.065-0.39-0.13-0.06,0-.13-0.065-0.19-0.065s-0.13-.065-0.2-0.065l-0.39-.2-0.06.456-0.13,1.173v0.2l0.19,0.065A0.888,0.888,0,0,1,1505.07,847.011Zm-42.9,21.18a1.057,1.057,0,0,0,.59-0.2l14.12-10.1,13.67,5.67a1.167,1.167,0,0,0,1.04-.13l11-8.733a1.068,1.068,0,1,0-1.3-1.694l-10.54,8.406-13.61-5.669a1.026,1.026,0,0,0-.97.13L1461.59,866.3a1.034,1.034,0,0,0-.26,1.434A0.938,0.938,0,0,0,1462.17,868.191Zm55.85,20.724h-4.82V858.742a1.025,1.025,0,0,0-1.04-1.043h-9.57a1.031,1.031,0,0,0-1.04,1.043v30.173h-3.51V869.169a1.031,1.031,0,0,0-1.04-1.043h-9.64a1.031,1.031,0,0,0-1.04,1.043v19.746h-3.51V867.6a1.033,1.033,0,0,0-1.05-1.042h-9.56a1.033,1.033,0,0,0-1.05,1.042v21.311h-3.51V873.73a1.031,1.031,0,0,0-1.04-1.042h-9.64a1.031,1.031,0,0,0-1.04,1.042v15.185h-4.88a1.043,1.043,0,0,0,0,2.085h66.91a1.033,1.033,0,0,0,1.05-1.043A0.944,0.944,0,0,0,1518.02,888.915Zm-14.39-29.131h7.49v29.131h-7.49V859.784Zm-15.23,10.427h7.49v18.7h-7.49v-18.7Zm-15.16-1.564h7.48v20.268h-7.48V868.647Zm-15.23,6.126h7.48v14.142h-7.48V874.773Z" transform="translate(-1450 -833)"/>
</svg>
