<svg xmlns="http://www.w3.org/2000/svg" width="55" height="55" viewBox="0 0 55 55">
  <metadata><?xpacket begin="﻿" id="W5M0MpCehiHzreSzNTczkc9d"?>
<x:xmpmeta xmlns:x="adobe:ns:meta/" x:xmptk="Adobe XMP Core 5.6-c142 79.160924, 2017/07/13-01:06:39        ">
   <rdf:RDF xmlns:rdf="http://www.w3.org/1999/02/22-rdf-syntax-ns#">
      <rdf:Description rdf:about=""/>
   </rdf:RDF>
</x:xmpmeta>
                                                                                                    
                                                                                                    
                                                                                                    
                                                                                                    
                                                                                                    
                                                                                                    
                                                                                                    
                                                                                                    
                                                                                                    
                                                                                                    
                                                                                                    
                                                                                                    
                                                                                                    
                                                                                                    
                                                                                                    
                                                                                                    
                                                                                                    
                                                                                                    
                                                                                                    
                                                                                                    
                           
<?xpacket end="w"?></metadata>
<defs>
    <style>
      .cls-1 {
        fill: #72d0f4;
        fill-rule: evenodd;
      }
    </style>
  </defs>
  <path class="cls-1" d="M1063.65,546.729a1.074,1.074,0,1,0,0,1.519A1.076,1.076,0,0,0,1063.65,546.729ZM1078.2,576.1a3.76,3.76,0,0,0-3.03-5.987h-18.26a3.76,3.76,0,0,0-3.03,5.986,5.375,5.375,0,0,0-2.88,4.756v1.074a1.072,1.072,0,0,0,1.07,1.074H1080a1.074,1.074,0,0,0,1.08-1.074V580.85A5.376,5.376,0,0,0,1078.2,576.1Zm-22.43-3.367a1.6,1.6,0,0,1,1.14-.472h18.26a1.612,1.612,0,1,1,0,3.223h-18.26a1.611,1.611,0,0,1-1.61-1.611A1.576,1.576,0,0,1,1055.77,572.728Zm-2.62,8.122a3.222,3.222,0,0,1,3.22-3.223h19.34a3.229,3.229,0,0,1,3.22,3.223h-25.78Zm51.85-7.719a6.693,6.693,0,0,0-1.29-1.486l-5.02-4.378a1.3,1.3,0,0,0-.14-0.167,1.038,1.038,0,0,0-.29-0.206l-3.04-2.647-14.05-12.256a3.216,3.216,0,0,0-.94-5.131l1.3-1.3a4.3,4.3,0,0,0,4.15-7.187l-9.12-9.114a4.288,4.288,0,0,0-6.07,0,4.3,4.3,0,0,0-1.11,4.148l-12.97,12.969a4.3,4.3,0,0,0-4.15,7.189l9.11,9.114a4.3,4.3,0,0,0,7.19-4.148l1.3-1.3a3.155,3.155,0,0,0,.63.888,3.22,3.22,0,0,0,4.5.054l14.96,17.193a1.382,1.382,0,0,0,.15.182q0.03,0.029.06,0.054l4.46,5.124c0.11,0.131.23,0.259,0.35,0.382a6.391,6.391,0,0,0,4.54,1.889,6.737,6.737,0,0,0,.91-0.063,6.482,6.482,0,0,0,4.79-3.32A6.342,6.342,0,0,0,1105,573.131Zm-32.99-42.353a2.116,2.116,0,0,1,1.52-.63,2.15,2.15,0,0,1,1.52.63l9.11,9.115a2.146,2.146,0,0,1,0,3.038,2.152,2.152,0,0,1-3.04,0l-9.11-9.115h0A2.146,2.146,0,0,1,1072.01,530.778Zm-6.08,30.382a2.152,2.152,0,0,1-3.04,0l-9.11-9.114a2.147,2.147,0,0,1,0-3.039,2.119,2.119,0,0,1,1.52-.629,2.153,2.153,0,0,1,1.52.629l9.11,9.116A2.145,2.145,0,0,1,1065.93,561.16Zm4.52-7.56-3,3-9.11-9.115,12.15-12.153,9.11,9.115-3.01,3.009a0.083,0.083,0,0,1-.03.029l-6.07,6.073A0.149,0.149,0,0,1,1070.45,553.6Zm3.84,2.241s0,0-.01.006l-0.75.756a1.093,1.093,0,0,1-.76.315,1.058,1.058,0,0,1-.76-0.315,1.045,1.045,0,0,1-.32-0.76,1.078,1.078,0,0,1,.3-0.745l6.11-6.1a1.068,1.068,0,0,1,1.5.011,1.062,1.062,0,0,1,0,1.52l-0.75.752s-0.01.01-.01,0.015Zm2.22,0.813,3.14-3.139,13.3,11.594-4.85,4.851Zm13,14.931,5.06-5.06,1.62,1.415-5.27,5.269Zm13.83,6.983a4.368,4.368,0,0,1-3.22,2.241,4.27,4.27,0,0,1-3.63-1.217c-0.08-.082-0.16-0.169-0.23-0.256a0.011,0.011,0,0,1-.01-0.012l-3.91-4.49,5.47-5.478,4.49,3.912s0.01,0.006.01,0.009a4.7,4.7,0,0,1,.89,1.02A4.24,4.24,0,0,1,1103.34,578.568Zm-32.09-39.435a1.074,1.074,0,0,0-1.52,0l-4.56,4.558a1.074,1.074,0,0,0,1.52,1.519l4.56-4.558A1.073,1.073,0,0,0,1071.25,539.133Z" transform="translate(-1051 -528)"/>
</svg>
