<svg xmlns="http://www.w3.org/2000/svg" width="63" height="61.031" viewBox="0 0 63 61.031">
  <metadata><?xpacket begin="﻿" id="W5M0MpCehiHzreSzNTczkc9d"?>
<x:xmpmeta xmlns:x="adobe:ns:meta/" x:xmptk="Adobe XMP Core 5.6-c142 79.160924, 2017/07/13-01:06:39        ">
   <rdf:RDF xmlns:rdf="http://www.w3.org/1999/02/22-rdf-syntax-ns#">
      <rdf:Description rdf:about=""/>
   </rdf:RDF>
</x:xmpmeta>
                                                                                                    
                                                                                                    
                                                                                                    
                                                                                                    
                                                                                                    
                                                                                                    
                                                                                                    
                                                                                                    
                                                                                                    
                                                                                                    
                                                                                                    
                                                                                                    
                                                                                                    
                                                                                                    
                                                                                                    
                                                                                                    
                                                                                                    
                                                                                                    
                                                                                                    
                                                                                                    
                           
<?xpacket end="w"?></metadata>
<defs>
    <style>
      .cls-1 {
        fill: #72d0f4;
        fill-rule: evenodd;
      }
    </style>
  </defs>
  <path class="cls-1" d="M655.53,545.034H602.9a0.9,0.9,0,0,0-.9.9V571.24a0.9,0.9,0,0,0,.9.9h35.788a0.9,0.9,0,0,0,0-1.808H603.8v-23.5h50.821V549.1a0.9,0.9,0,0,0,.9.9h0a0.9,0.9,0,0,0,.9-0.9v-3.165A0.9,0.9,0,0,0,655.53,545.034Zm-6.12-4.195-42.1-9.488a0.9,0.9,0,0,0-1.078.685l-2.105,9.488a0.9,0.9,0,1,0,1.761.392l1.909-8.6,41.218,9.289a0.886,0.886,0,0,0,.2.022A0.9,0.9,0,0,0,649.41,540.839Zm-5.112-5.228-25.26-10.543a0.9,0.9,0,0,0-1.157.431l-2.105,4.217a0.905,0.905,0,1,0,1.592.863c0.009-.017.018-0.035,0.026-0.053v0l1.728-3.462,24.48,10.217A0.906,0.906,0,0,0,644.3,535.611Zm0.638,13.64h-8.353a0.9,0.9,0,0,0,0,1.807h8.353A0.9,0.9,0,0,0,644.936,549.251Zm-16.774.06a9.278,9.278,0,1,0,9.263,9.278A9.27,9.27,0,0,0,628.162,549.311Zm0,16.869a7.591,7.591,0,1,1,7.578-7.591A7.584,7.584,0,0,1,628.162,566.18Zm25.261-13.917c-5.579,0-11.578,1.32-11.578,4.217v25.3c0,2.9,6,4.217,11.578,4.217S665,584.68,665,581.783v-25.3C665,553.583,659,552.263,653.423,552.263Zm9.472,29.5c-0.159.585-3.315,2.124-9.472,2.124s-9.314-1.539-9.473-2.108v-1.658c2.24,1.131,5.939,1.658,9.473,1.658s7.233-.533,9.472-1.659v1.643Zm0-4.217c-0.159.585-3.315,2.124-9.472,2.124s-9.314-1.539-9.473-2.108v-1.658c2.24,1.131,5.939,1.658,9.473,1.658s7.233-.533,9.472-1.659v1.643Zm0-4.217c-0.159.585-3.315,2.124-9.472,2.124s-9.314-1.539-9.473-2.108v-1.658c2.24,1.13,5.939,1.658,9.473,1.658s7.233-.533,9.472-1.659v1.643Zm0-4.217c-0.159.585-3.315,2.124-9.472,2.124s-9.314-1.539-9.473-2.108v-1.658c2.24,1.13,5.939,1.658,9.473,1.658s7.233-.533,9.472-1.659v1.643Zm0-4.217c-0.159.585-3.315,2.124-9.472,2.124s-9.314-1.539-9.473-2.109v-1.657c2.24,1.125,5.939,1.657,9.473,1.657s7.233-.532,9.472-1.658V564.9Zm0-4.217c-0.159.585-3.315,2.124-9.472,2.124s-9.314-1.539-9.473-2.109V559.04c2.24,1.125,5.939,1.657,9.473,1.657s7.233-.532,9.472-1.658v1.643Zm-9.472-2.093c-6.148,0-9.3-1.535-9.473-2.09v-0.006c0.169-.587,3.325-2.121,9.473-2.121,6.1,0,9.262,1.511,9.472,2.108C662.685,557.077,659.527,558.589,653.423,558.589Zm-33.68,7.529h-7.956l-3.773-4.132v-6.853l4.166-4.075h7.563a0.9,0.9,0,0,0,0-1.807h-7.929a0.906,0.906,0,0,0-.631.256l-4.7,4.594a1.126,1.126,0,0,0-.271.738v7.5a0.9,0.9,0,0,0,.235.609l4.277,4.685a0.893,0.893,0,0,0,.666.294h8.355A0.9,0.9,0,0,0,619.743,566.118Zm8.946-8.584h-1.053a0.329,0.329,0,1,1,0-.527h2.632a1.054,1.054,0,0,0,0-2.108h-1.053a1.053,1.053,0,1,0-2.105,0v0.047a2.453,2.453,0,0,0-2.105,2.32,2.515,2.515,0,0,0,2.631,2.377h1.053a0.329,0.329,0,1,1,0,.527h-2.631a1.055,1.055,0,0,0,0,2.109h1.052a1.053,1.053,0,1,0,2.105,0v-0.048a2.452,2.452,0,0,0,2.105-2.319A2.516,2.516,0,0,0,628.689,557.534Z" transform="translate(-602 -524.969)"/>
</svg>
