<svg xmlns="http://www.w3.org/2000/svg" width="62.031" height="48" viewBox="0 0 62.031 48">
  <metadata><?xpacket begin="﻿" id="W5M0MpCehiHzreSzNTczkc9d"?>
<x:xmpmeta xmlns:x="adobe:ns:meta/" x:xmptk="Adobe XMP Core 5.6-c142 79.160924, 2017/07/13-01:06:39        ">
   <rdf:RDF xmlns:rdf="http://www.w3.org/1999/02/22-rdf-syntax-ns#">
      <rdf:Description rdf:about=""/>
   </rdf:RDF>
</x:xmpmeta>
                                                                                                    
                                                                                                    
                                                                                                    
                                                                                                    
                                                                                                    
                                                                                                    
                                                                                                    
                                                                                                    
                                                                                                    
                                                                                                    
                                                                                                    
                                                                                                    
                                                                                                    
                                                                                                    
                                                                                                    
                                                                                                    
                                                                                                    
                                                                                                    
                                                                                                    
                                                                                                    
                           
<?xpacket end="w"?></metadata>
<defs>
    <style>
      .cls-1 {
        fill: #72d0f4;
        fill-rule: evenodd;
      }
    </style>
  </defs>
  <path class="cls-1" d="M651.5,893.255a1.013,1.013,0,0,0-1.321-.54l-8.831,3.662a8.063,8.063,0,0,1-5.6.214l-20.714-6.784a5.58,5.58,0,0,0-3.973.187l-0.822.358a1,1,0,0,0-.52,1.322,1.013,1.013,0,0,0,1.331.518l0.822-.359a3.553,3.553,0,0,1,2.529-.119l20.714,6.784a10.09,10.09,0,0,0,7.009-.268l8.831-3.661A1,1,0,0,0,651.5,893.255Zm13.12-9.52L664.6,883.7a4.8,4.8,0,0,0-5.394-2.758,3.989,3.989,0,0,0-2.334-4.877l-0.035-.013a4.048,4.048,0,0,0-2.535-.135v-6.509a1.011,1.011,0,0,0-2.021,0v13.9L643.4,886.4a4.559,4.559,0,0,1-2.983,0l-10.442-3.627v-4.047l10,3.4a4.2,4.2,0,0,0,5.144-2.206h1.264a1.008,1.008,0,0,0,1.011-1V867.268a1.008,1.008,0,0,0-1.011-1H635.878a1.008,1.008,0,0,0-1.011,1v4.044l-4.888-1.864v-7.5l11.152-7.341,11.154,7.341v4.111a1.011,1.011,0,0,0,2.021,0v-2.782l2.774,1.825a1.006,1.006,0,1,0,1.115-1.674l-5.5-3.624V852a1.008,1.008,0,0,0-1.011-1h-6.062a1.007,1.007,0,0,0-1.01,1v2.486l-2.917-1.92a1.014,1.014,0,0,0-1.116,0l-16.5,10.863a1,1,0,0,0-.285,1.392,1.014,1.014,0,0,0,1.4.283l2.774-1.826v5.4l-3.408-1.3c-0.13-.051-0.274-0.1-0.451-0.164a12.581,12.581,0,0,0-10.93,1.494l-9.719,6.435a1,1,0,0,0-.281,1.392,1.013,1.013,0,0,0,1.4.279l9.719-6.435a10.539,10.539,0,0,1,9.155-1.265c0.146,0.049.261,0.091,0.372,0.135l18.281,6.97a2.13,2.13,0,0,1,1.2,2.843,2.163,2.163,0,0,1-2.663,1.165l-11.6-3.942a3.948,3.948,0,0,0-2.832.109,3.9,3.9,0,0,0,.26,7.287l13.291,4.617a6.6,6.6,0,0,0,4.316,0l15.238-5.3a2.772,2.772,0,0,1,3.444,1.506l0.006,0.013a2.732,2.732,0,0,1-1.479,3.594l-8.137,3.374a1,1,0,0,0,.778,1.853l8.137-3.373a4.733,4.733,0,0,0,2.584-2.588A4.685,4.685,0,0,0,664.618,883.735Zm-17.991-30.727h4.042v5.471l-4.042-2.659v-2.812Zm-3.808,21.336-5.931-2.261v-3.81h8.487v8.962a4.186,4.186,0,0,0-.222-0.665A4.115,4.115,0,0,0,642.819,874.344Zm-14.861,7.73-0.828-.287a1.9,1.9,0,0,1,.828-3.691v3.978h0Zm29.259-1.546-0.519,1.251-2.392.832v-4.523h0a2.016,2.016,0,0,1,1.795-.164l0.03,0.012A1.982,1.982,0,0,1,657.217,880.528Z" transform="translate(-603 -851)"/>
</svg>
