<svg xmlns="http://www.w3.org/2000/svg" width="50" height="50" viewBox="0 0 50 50">
  <metadata><?xpacket begin="﻿" id="W5M0MpCehiHzreSzNTczkc9d"?>
<x:xmpmeta xmlns:x="adobe:ns:meta/" x:xmptk="Adobe XMP Core 5.6-c142 79.160924, 2017/07/13-01:06:39        ">
   <rdf:RDF xmlns:rdf="http://www.w3.org/1999/02/22-rdf-syntax-ns#">
      <rdf:Description rdf:about=""/>
   </rdf:RDF>
</x:xmpmeta>
                                                                                                    
                                                                                                    
                                                                                                    
                                                                                                    
                                                                                                    
                                                                                                    
                                                                                                    
                                                                                                    
                                                                                                    
                                                                                                    
                                                                                                    
                                                                                                    
                                                                                                    
                                                                                                    
                                                                                                    
                                                                                                    
                                                                                                    
                                                                                                    
                                                                                                    
                                                                                                    
                           
<?xpacket end="w"?></metadata>
<defs>
    <style>
      .cls-1 {
        fill: #72d0f4;
        fill-rule: evenodd;
      }
    </style>
  </defs>
  <path class="cls-1" d="M1489.56,546.49a1,1,0,0,0-.69-0.286,0.977,0.977,0,0,0-.69.286,0.967,0.967,0,0,0,0,1.381,0.973,0.973,0,0,0,.69.286A0.981,0.981,0,0,0,1489.56,546.49Zm1.42,10.021a0.974,0.974,0,0,0-1.33.37l-5.76,10.2a0.973,0.973,0,0,0,.37,1.331,0.976,0.976,0,0,0,1.33-.371l5.76-10.2A0.98,0.98,0,0,0,1490.98,556.511Zm1.2,6.79a2.93,2.93,0,1,0,2.93,2.93A2.93,2.93,0,0,0,1492.18,563.3Zm0,3.906a0.977,0.977,0,1,1,.98-0.976A0.979,0.979,0,0,1,1492.18,567.207Zm-7.87-12.547a2.93,2.93,0,1,0,2.93,2.929A2.93,2.93,0,0,0,1484.31,554.66Zm0,3.906a0.977,0.977,0,1,1,.97-0.977A0.98,0.98,0,0,1,1484.31,558.566Zm3.87-8.472a11.816,11.816,0,0,0-.36,23.626,4.1,4.1,0,0,1-8.13-.775,0.268,0.268,0,0,0-.01-0.089,0.378,0.378,0,0,0,.01-0.106,0.979,0.979,0,0,0-.98-0.976h-21.48V535.25a4.3,4.3,0,0,1,4.29-4.3h27.98a6.018,6.018,0,0,0-1.61,4.1,0.317,0.317,0,0,0,.01.1,0.327,0.327,0,0,0-.01.1V543.6a0.975,0.975,0,1,0,1.95,0v-7.566h9.18a0.979,0.979,0,0,0,.98-0.976,6.063,6.063,0,0,0-6.05-6.055c-0.2,0-.4.01-0.59,0.029a1.093,1.093,0,0,0-.24-0.029h-31.6a6.261,6.261,0,0,0-6.25,6.25v36.524h-4.29a0.979,0.979,0,0,0-.98.976,6.255,6.255,0,0,0,6.25,6.25h27.54a6.072,6.072,0,0,0,6.02-5.385A11.817,11.817,0,0,0,1488.18,550.094Zm5.77-19.141a4.11,4.11,0,0,1,3.98,3.125h-7.97A4.113,4.113,0,0,1,1493.95,530.953Zm-37.7,46.094a4.3,4.3,0,0,1-4.18-3.32h25.72a5.993,5.993,0,0,0,1.55,3.32h-23.09Zm31.93-5.273a9.864,9.864,0,1,1,9.87-9.864A9.878,9.878,0,0,1,1488.18,571.774Zm-14.97-17.188h-10.12a0.977,0.977,0,1,0,0,1.953h10.12A0.977,0.977,0,1,0,1473.21,554.586Zm0,5.469h-10.12a0.977,0.977,0,1,0,0,1.953h10.12A0.977,0.977,0,1,0,1473.21,560.055Zm6.62-10.938h-16.74a0.977,0.977,0,1,0,0,1.953h16.74A0.977,0.977,0,1,0,1479.83,549.117Zm-6.62,16.406h-6.51a0.977,0.977,0,1,0,0,1.954h6.51A0.977,0.977,0,1,0,1473.21,565.523Zm-9.43.287a0.973,0.973,0,0,0-1.38,0,0.966,0.966,0,0,0,0,1.38,0.973,0.973,0,0,0,1.38,0A0.966,0.966,0,0,0,1463.78,565.81Zm19.37-30.364h-4.04a0.977,0.977,0,0,0,0,1.953h1.04v6.44a0.98,0.98,0,0,0,1.96,0V537.4h1.04A0.977,0.977,0,0,0,1483.15,535.446Zm-14.77.071a0.972,0.972,0,0,0-1.27.537l-2.12,5.2-2.12-5.2a0.977,0.977,0,0,0-1.81.736l3.03,7.422a0.967,0.967,0,0,0,.9.608,0.957,0.957,0,0,0,.9-0.608l3.03-7.422A0.981,0.981,0,0,0,1468.38,535.517Zm8.33,7.986-2.71-7.361a0.98,0.98,0,0,0-.92-0.64,0.967,0.967,0,0,0-.91.64l-2.71,7.361a0.975,0.975,0,1,0,1.83.674l0.19-.5h3.21l0.19,0.5a0.961,0.961,0,0,0,.91.64,0.993,0.993,0,0,0,.34-0.061A0.978,0.978,0,0,0,1476.71,543.5Zm-4.51-1.779,0.88-2.417,0.89,2.417h-1.77Z" transform="translate(-1450 -529)"/>
</svg>
