<svg xmlns="http://www.w3.org/2000/svg" width="59" height="63" viewBox="0 0 59 63">
  <metadata><?xpacket begin="﻿" id="W5M0MpCehiHzreSzNTczkc9d"?>
<x:xmpmeta xmlns:x="adobe:ns:meta/" x:xmptk="Adobe XMP Core 5.6-c142 79.160924, 2017/07/13-01:06:39        ">
   <rdf:RDF xmlns:rdf="http://www.w3.org/1999/02/22-rdf-syntax-ns#">
      <rdf:Description rdf:about=""/>
   </rdf:RDF>
</x:xmpmeta>
                                                                                                    
                                                                                                    
                                                                                                    
                                                                                                    
                                                                                                    
                                                                                                    
                                                                                                    
                                                                                                    
                                                                                                    
                                                                                                    
                                                                                                    
                                                                                                    
                                                                                                    
                                                                                                    
                                                                                                    
                                                                                                    
                                                                                                    
                                                                                                    
                                                                                                    
                                                                                                    
                           
<?xpacket end="w"?></metadata>
<defs>
    <style>
      .cls-1 {
        fill: #72d0f4;
        fill-rule: evenodd;
      }
    </style>
  </defs>
  <path class="cls-1" d="M1098.82,853l-18.7-16.767a0.932,0.932,0,0,0-1.24,0L1060.18,853a0.933,0.933,0,0,0,.62,1.614h5.97V883.28a0.921,0.921,0,0,0,.92.925h23.62a0.93,0.93,0,0,0,.93-0.925v-11.3a0.925,0.925,0,0,0-1.85,0v10.377h-21.78V853.69a0.921,0.921,0,0,0-.92-0.925h-4.48l16.29-14.6,16.29,14.6h-4.48a0.921,0.921,0,0,0-.92.925v13.85a0.92,0.92,0,1,0,1.84,0V854.615h5.97a0.917,0.917,0,0,0,.86-0.6A0.926,0.926,0,0,0,1098.82,853Zm-13.41,6.545a2.407,2.407,0,0,0,2.4-2.4v-1.479a6.853,6.853,0,0,0-5.91-6.781v-1.6a2.4,2.4,0,1,0-4.8,0v1.726a7.583,7.583,0,0,0,1.66,14.98h1.48a2.774,2.774,0,0,1,0,5.548h-2.22a2.034,2.034,0,0,1-2.03-2.034,2.4,2.4,0,1,0-4.8,0,6.851,6.851,0,0,0,5.91,6.78v1.6a2.4,2.4,0,1,0,4.8,0v-1.726a7.583,7.583,0,0,0-1.66-14.98h-1.48a2.774,2.774,0,0,1,0-5.548h2.22a2.034,2.034,0,0,1,2.03,2.034v1.479A2.4,2.4,0,0,0,1085.41,859.546Zm-4.43-7.767h-2.22a4.624,4.624,0,0,0,0,9.247h1.48a5.733,5.733,0,0,1,.63,11.429,0.93,0.93,0,0,0-.82.92v2.507a0.55,0.55,0,1,1-1.1,0v-2.465a0.93,0.93,0,0,0-.93-0.925,5,5,0,0,1-4.98-4.993,0.555,0.555,0,1,1,1.11,0,3.883,3.883,0,0,0,3.87,3.883h2.22a4.623,4.623,0,0,0,0-9.246h-1.48a5.733,5.733,0,0,1-.63-11.43,0.929,0.929,0,0,0,.82-0.919v-2.508a0.55,0.55,0,1,1,1.1,0v2.466a0.93,0.93,0,0,0,.93.925,5,5,0,0,1,4.98,4.993v1.479a0.555,0.555,0,1,1-1.11,0v-1.479A3.884,3.884,0,0,0,1080.98,851.779Zm10.33,35.508h-23.62a0.925,0.925,0,0,0,0,1.85h23.62A0.925,0.925,0,0,0,1091.31,887.287Zm0,4.932h-23.62a0.925,0.925,0,0,0,0,1.849h23.62A0.925,0.925,0,0,0,1091.31,892.219Zm0,4.931h-23.62a0.925,0.925,0,0,0,0,1.85h23.62A0.925,0.925,0,0,0,1091.31,897.15Zm16.77-26.754a0.921,0.921,0,0,0,.92-0.925v-0.986a3.886,3.886,0,0,0-3.88-3.884h-0.06v-2.034a0.92,0.92,0,1,0-1.84,0v2.056a4.377,4.377,0,0,0,.43,8.732h0.98a2.528,2.528,0,0,1,0,5.055h-1.47a2.034,2.034,0,0,1-2.03-2.034,0.925,0.925,0,1,0-1.85,0,3.886,3.886,0,0,0,3.88,3.883h0.06v2.035a0.92,0.92,0,1,0,1.84,0v-2.056a4.377,4.377,0,0,0-.43-8.732h-0.98a2.528,2.528,0,0,1,0-5.055h1.47a2.034,2.034,0,0,1,2.03,2.034v0.986A0.93,0.93,0,0,0,1108.08,870.4Zm-49.28,0a0.921,0.921,0,0,0,.92-0.925v-0.986a3.886,3.886,0,0,0-3.88-3.884h-0.06v-2.034a0.92,0.92,0,1,0-1.84,0v2.056a4.377,4.377,0,0,0,.43,8.732h0.98a2.528,2.528,0,0,1,0,5.055h-1.47a2.034,2.034,0,0,1-2.03-2.034,0.925,0.925,0,1,0-1.85,0,3.886,3.886,0,0,0,3.88,3.883h0.06v2.035a0.92,0.92,0,1,0,1.84,0v-2.056a4.377,4.377,0,0,0-.43-8.732h-0.98a2.528,2.528,0,0,1,0-5.055h1.47a2.034,2.034,0,0,1,2.03,2.034v0.986A0.93,0.93,0,0,0,1058.8,870.4Z" transform="translate(-1050 -836)"/>
</svg>
