<svg id="Layer_1" data-name="Layer 1" xmlns="http://www.w3.org/2000/svg" viewBox="0 0 45.72 45.99"><defs><style>.cls-1{fill:none;stroke:#e1514a;stroke-miterlimit:10;stroke-width:2px;}</style></defs><title>ask</title><path class="cls-1" d="M36.42,9.3V5.07a4,4,0,0,0-4-4H5a4,4,0,0,0-4,4V23.78a4,4,0,0,0,4,4H9.3" transform="translate(0 -0.1)"/><path class="cls-1" d="M13.32,9.3H40.71a4,4,0,0,1,4,4V32a4,4,0,0,1-4,4H34.94v7.76l-7.86-7.76H13.32a4,4,0,0,1-4-4V13.27A4,4,0,0,1,13.32,9.3Z" transform="translate(0 -0.1)"/><line class="cls-1" x1="37.6" y1="17.11" x2="23.97" y2="17.11"/><line class="cls-1" x1="37.6" y1="22.38" x2="14.93" y2="22.38"/><line class="cls-1" x1="37.6" y1="27.64" x2="14.93" y2="27.64"/></svg>