<svg xmlns="http://www.w3.org/2000/svg" width="70" height="53" viewBox="0 0 70 53">
  <defs>
    <style>
      .cls-1 {
        fill: #72d0f4;
        fill-rule: evenodd;
      }
    </style>
  </defs>
  <path class="cls-1" d="M1258.86,1209.27l-7.25-12.33a17.957,17.957,0,0,0-3.28-29.12,17.918,17.918,0,0,0-26.45,13.8V1163.1h28.48v3.35a1.045,1.045,0,1,0,2.09,0v-4.4a1.041,1.041,0,0,0-1.04-1.05h-30.57a0.375,0.375,0,0,0-.11.01,0.41,0.41,0,0,0-.11-0.01h-25.54a1.05,1.05,0,1,0,0,2.1h24.49v43.67H1191.1v-44.72a1.05,1.05,0,0,0-2.1,0v50.9a1.05,1.05,0,0,0,1.05,1.05h30.57a0.41,0.41,0,0,0,.11-0.01,0.375,0.375,0,0,0,.11.01h29.11a1.05,1.05,0,0,0,1.05-1.05v-3.31l1.86,3.16a1.041,1.041,0,0,0,.9.52,1.014,1.014,0,0,0,.53-0.15l4.19-2.47A1.046,1.046,0,0,0,1258.86,1209.27Zm-39.29,2.63H1191.1v-2.96h28.47v2.96Zm6.27-36.01a15.822,15.822,0,1,1,6.23,21.51A15.832,15.832,0,0,1,1225.84,1175.89Zm23.06,36.01h-27.02v-2.96h27.02v2.96Zm-27.02-5.13v-21.39a17.867,17.867,0,0,0,22.8,15.38q0.465-.135.93-0.3l3.7,6.31h-27.43Zm32.25,4.06-6.57-11.18a18.92,18.92,0,0,0,2.39-1.4l6.57,11.18Zm-1.33-31.1a13.643,13.643,0,1,0-13.13,17.47,13.877,13.877,0,0,0,3.82-.54A13.668,13.668,0,0,0,1252.8,1179.73Zm-13.09-7.76a11.531,11.531,0,0,1,8.33,3.57h-16.69A11.564,11.564,0,0,1,1239.71,1171.97Zm3.2,22.67a11.467,11.467,0,0,1-8.79-.98c-0.3-.16-0.59-0.35-0.88-0.54h12.91A11.322,11.322,0,0,1,1242.91,1194.64Zm6.9-5.53a11.72,11.72,0,0,1-1.31,1.91h-17.61a11.694,11.694,0,0,1-2.6-5.68,0.842,0.842,0,0,0,.27.04h22.19a0.857,0.857,0,0,0,.36-0.07A11.659,11.659,0,0,1,1249.81,1189.11Zm0.94-5.83h-22.18a0.99,0.99,0,0,0-.42.09,11.436,11.436,0,0,1,1.43-5.42,2.479,2.479,0,0,1,.18-0.31h19.65a1.492,1.492,0,0,0,.21-0.02,11.538,11.538,0,0,1,1.17,2.69,11.721,11.721,0,0,1,.45,3.09A0.988,0.988,0,0,0,1250.75,1183.28Zm-37.27-14.98h-16.62a1.05,1.05,0,0,0,0,2.1h16.62A1.05,1.05,0,0,0,1213.48,1168.3Zm0,6.42h-16.62a1.05,1.05,0,0,0,0,2.1h16.62A1.05,1.05,0,0,0,1213.48,1174.72Zm0,6.42h-16.62a1.05,1.05,0,0,0,0,2.1h16.62A1.05,1.05,0,0,0,1213.48,1181.14Zm0,6.43h-16.62a1.05,1.05,0,0,0,0,2.1h16.62A1.05,1.05,0,0,0,1213.48,1187.57Zm0,6.42h-16.62a1.05,1.05,0,0,0,0,2.1h16.62A1.05,1.05,0,0,0,1213.48,1193.99Z" transform="translate(-1189 -1161)"/>
</svg>
