<svg xmlns="http://www.w3.org/2000/svg" width="18" height="18.031" viewBox="0 0 18 18.031">
  <metadata><?xpacket begin="﻿" id="W5M0MpCehiHzreSzNTczkc9d"?>
<x:xmpmeta xmlns:x="adobe:ns:meta/" x:xmptk="Adobe XMP Core 5.6-c142 79.160924, 2017/07/13-01:06:39        ">
   <rdf:RDF xmlns:rdf="http://www.w3.org/1999/02/22-rdf-syntax-ns#">
      <rdf:Description rdf:about=""/>
   </rdf:RDF>
</x:xmpmeta>
                                                                                                    
                                                                                                    
                                                                                                    
                                                                                                    
                                                                                                    
                                                                                                    
                                                                                                    
                                                                                                    
                                                                                                    
                                                                                                    
                                                                                                    
                                                                                                    
                                                                                                    
                                                                                                    
                                                                                                    
                                                                                                    
                                                                                                    
                                                                                                    
                                                                                                    
                                                                                                    
                           
<?xpacket end="w"?></metadata>
<defs>
    <style>
      .cls-1 {
        fill: #666;
        fill-rule: evenodd;
      }
    </style>
  </defs>
  <path id="ic-edit" class="cls-1" d="M617.342,567.416l-0.8.8-4.774-4.779,0.8-.8a2.249,2.249,0,0,1,3.183,0l1.591,1.593A2.259,2.259,0,0,1,617.342,567.416ZM606.2,576.974a0.563,0.563,0,1,0,.8.8l8.752-8.761-0.8-.8Zm-3.978-3.983a0.563,0.563,0,1,0,.795.8l8.751-8.762-0.8-.8Zm10.341-7.169-8.751,8.762a1.126,1.126,0,1,0,1.592,1.592l8.751-8.76Zm-7.161,12.742a1.64,1.64,0,0,1-.447-0.963,2.344,2.344,0,0,1-.347.034,2.253,2.253,0,0,1-2.25-2.254,2.182,2.182,0,0,1,.032-0.324,1.666,1.666,0,0,1-.964-0.473c-0.025-.025-0.034-0.059-0.057-0.087L600,580l5.481-1.374C605.457,578.6,605.429,578.588,605.406,578.564Z" transform="translate(-600 -561.969)"/>
</svg>
