<svg xmlns="http://www.w3.org/2000/svg" width="16" height="16" viewBox="0 0 16 16">
  <metadata><?xpacket begin="﻿" id="W5M0MpCehiHzreSzNTczkc9d"?>
<x:xmpmeta xmlns:x="adobe:ns:meta/" x:xmptk="Adobe XMP Core 5.6-c142 79.160924, 2017/07/13-01:06:39        ">
   <rdf:RDF xmlns:rdf="http://www.w3.org/1999/02/22-rdf-syntax-ns#">
      <rdf:Description rdf:about=""/>
   </rdf:RDF>
</x:xmpmeta>
                                                                                                    
                                                                                                    
                                                                                                    
                                                                                                    
                                                                                                    
                                                                                                    
                                                                                                    
                                                                                                    
                                                                                                    
                                                                                                    
                                                                                                    
                                                                                                    
                                                                                                    
                                                                                                    
                                                                                                    
                                                                                                    
                                                                                                    
                                                                                                    
                                                                                                    
                                                                                                    
                           
<?xpacket end="w"?></metadata>
<defs>
    <style>
      .cls-1 {
        fill: #666;
        fill-rule: evenodd;
      }
    </style>
  </defs>
  <path id="ic-Mark" class="cls-1" d="M385.2,572.012a8,8,0,1,1-2.343-5.657A7.71,7.71,0,0,1,385.2,572.012Zm-4.187-2.75a0.689,0.689,0,0,0-.3-0.438,0.646,0.646,0,0,0-.516-0.094,0.789,0.789,0,0,0-.468.313l-3.375,5.156-1.594-1.5a0.768,0.768,0,0,0-.516-0.187,0.609,0.609,0,0,0-.484.218,0.76,0.76,0,0,0,.031,1l2.25,2.063c0.021,0.021.036,0.037,0.047,0.047a0.04,0.04,0,0,0,.031.015,0.291,0.291,0,0,1,.078.032,0.354,0.354,0,0,1,.125.062h0.125a0.2,0.2,0,0,0,.157,0h0.062a0.678,0.678,0,0,0,.219-0.094l0.031-.031,0.094-.062a0.39,0.39,0,0,0,.062-0.094l3.844-5.875h0A0.69,0.69,0,0,0,381.008,569.262Z" transform="translate(-369.188 -564)"/>
</svg>
