<svg xmlns="http://www.w3.org/2000/svg" width="15" height="15" viewBox="0 0 15 15">
  <metadata><?xpacket begin="﻿" id="W5M0MpCehiHzreSzNTczkc9d"?>
<x:xmpmeta xmlns:x="adobe:ns:meta/" x:xmptk="Adobe XMP Core 5.6-c142 79.160924, 2017/07/13-01:06:39        ">
   <rdf:RDF xmlns:rdf="http://www.w3.org/1999/02/22-rdf-syntax-ns#">
      <rdf:Description rdf:about=""/>
   </rdf:RDF>
</x:xmpmeta>
                                                                                                    
                                                                                                    
                                                                                                    
                                                                                                    
                                                                                                    
                                                                                                    
                                                                                                    
                                                                                                    
                                                                                                    
                                                                                                    
                                                                                                    
                                                                                                    
                                                                                                    
                                                                                                    
                                                                                                    
                                                                                                    
                                                                                                    
                                                                                                    
                                                                                                    
                                                                                                    
                           
<?xpacket end="w"?></metadata>
<defs>
    <style>
      .cls-1 {
        fill: #f17c2d;
        fill-rule: evenodd;
      }
    </style>
  </defs>
  <path id="ic-unmark" class="cls-1" d="M684.164,572.512a7.522,7.522,0,1,1-2.2-5.3A7.222,7.222,0,0,1,684.164,572.512Zm-4.016-3.485a0.429,0.429,0,0,0-.7.016l-2.75,2.75-2.468-2.75a0.5,0.5,0,1,0-.719.687l2.469,2.75-2.782,2.813a0.456,0.456,0,0,0,0,.687,0.409,0.409,0,0,0,.688,0l2.75-2.75,2.469,2.75a0.5,0.5,0,1,0,.718-0.687l-2.468-2.75,2.781-2.813A0.428,0.428,0,0,0,680.148,569.027Z" transform="translate(-669.156 -565)"/>
</svg>
