<svg id="Layer_1" data-name="Layer 1" xmlns="http://www.w3.org/2000/svg" viewBox="0 0 471.11 51.07"><defs><style>.cls-1{fill:#282828;}.cls-2{fill:#e43f31;}</style></defs><title>logo</title><path class="cls-1" d="M376.78,16.64h5.7v4.93a14.49,14.49,0,0,1,12.16-5.31c4.78.1,8.82,1.73,11.48,6.19A15.72,15.72,0,0,1,408.29,20c3.77-3.17,8.16-4.13,13-3.65a13.9,13.9,0,0,1,4.45,1.16c4,1.81,6,5.06,6.83,9.2a14.48,14.48,0,0,1,.35,2.84c0,6.86,0,13.71,0,20.69h-6.08c0-.53,0-1,0-1.56q0-8.45,0-16.9a16.86,16.86,0,0,0-.3-3.48,7.7,7.7,0,0,0-7.65-6.6c-6.35-.37-10.72,3.67-10.83,10.2-.1,5.58,0,11.16,0,16.74,0,.52,0,1,0,1.64H402a2.38,2.38,0,0,1-.15-1.38q0-8.29,0-16.58a21.51,21.51,0,0,0-.28-3.65,7.8,7.8,0,0,0-7.84-7c-6.5-.34-10.76,3.67-10.91,10.5-.12,5.42,0,10.84,0,16.26,0,.58,0,1.15,0,1.81h-5.91C376.64,49,376.55,20,376.78,16.64Z"/><path class="cls-1" d="M271.19,5.75h6.23v18.9c1.39.26,22.5.34,25.58.11,0-3.15,0-6.32,0-9.49S303,9,303,5.8h6.3V50.29H303V30.48H277.53v19.8h-6.35Z"/><polygon class="cls-1" points="0 6.08 6.25 6.08 6.25 25.09 31.77 25.09 31.77 6.12 38.11 6.12 38.11 50.62 31.85 50.62 31.85 30.8 6.34 30.8 6.34 50.6 0 50.6 0 6.08"/><path class="cls-1" d="M83.5,16.93h5.88c.39.41.2.91.21,1.36q0,8.29,0,16.58a19.83,19.83,0,0,0,.24,3.33c.78,4.6,3.58,7.12,8.22,7.35,6.73.32,11.06-3.7,11.22-10.58.11-4.89,0-9.78,0-14.67,0-1.06,0-2.13,0-3.3h6V50.63h-5.69V45.95a.44.44,0,0,0-.52.17c-3.4,4-7.86,5.18-12.88,4.81a16,16,0,0,1-3.6-.66c-5.15-1.61-8-5.21-8.83-10.43a27,27,0,0,1-.32-4.6C83.51,29.19,83.5,23.14,83.5,16.93Z"/><path class="cls-1" d="M146.23,19.69l-2.56,4.77a18.34,18.34,0,0,0-8.3-2.64,16.35,16.35,0,0,0-5.68.51,6,6,0,0,0-2.38,1.23,3.6,3.6,0,0,0,.46,6,15,15,0,0,0,5.13,1.6,67.14,67.14,0,0,1,7.46,1.57c.66.21,1.3.44,1.94.69,6.61,2.65,6.21,10.92,1.9,14.25a15.09,15.09,0,0,1-7,2.9,27.83,27.83,0,0,1-16.18-2.15,7.31,7.31,0,0,1-.87-.49,3.46,3.46,0,0,1-1.32-1l2.45-4.63a22.22,22.22,0,0,0,6.58,2.76,20.73,20.73,0,0,0,9.62.19,6.33,6.33,0,0,0,1.77-.7,3.68,3.68,0,0,0,2-3.56,3.28,3.28,0,0,0-2.16-2.9,20.57,20.57,0,0,0-5.52-1.44,54,54,0,0,1-6.23-1.27c-.76-.23-1.51-.49-2.25-.79-6.7-2.72-6.22-10.74-2.67-14.16a13.19,13.19,0,0,1,6.72-3.38,26.08,26.08,0,0,1,15.72,1.75,7.24,7.24,0,0,1,.84.46C145.83,19.37,145.95,19.48,146.23,19.69Z"/><path class="cls-2" d="M340,13.25,331.09,21c-2.81,2.44-5.57,4.93-8.44,7.31A3.11,3.11,0,0,0,321.48,31c0,5.79,0,11.59,0,17.38a4.26,4.26,0,0,1-.12,1.62h-2.68V31.77L312,37.52a12.2,12.2,0,0,1-2.3-2.57l29.92-26,33.83,23-1.95,2.86-6-4V50h-2.85V28.76Z"/><path class="cls-2" d="M184.32,10.95,187.87.44c9.37,5.63,19,8.17,29.58,4.13a9,9,0,0,0-.57-2.16c-.19-.71-.41-1.42-.69-2.4l10.25,3.65-5.92,10.62-1.74-5.52C207.56,14.18,196.21,15.55,184.32,10.95Z"/><rect class="cls-2" x="201.64" y="18.9" width="5.87" height="31.75"/><path class="cls-2" d="M352.49,14.1v-7a16.07,16.07,0,0,1,3.37-.1v9.36Z"/><path class="cls-1" d="M181.51,30.95c-.93-6.26-4-11-10.08-13.19-6.28-2.32-12.3-1.54-17.49,2.85-4.87,4.12-6.34,9.66-5.53,15.82a15.35,15.35,0,0,0,8.2,12.2,20.15,20.15,0,0,0,17.82.72,12.37,12.37,0,0,0,5.08-3.84c-1.15-1.28-2.12-2.65-3.36-3.82-4.31,4.21-9.34,4.95-14.77,3.05-4.12-1.44-6.34-4.59-7.12-9.08h27.32A14.88,14.88,0,0,0,181.51,30.95Zm-27.13.25a10.77,10.77,0,0,1,21.38,0Z"/><path class="cls-1" d="M470.9,30.73c-1-6.73-4.41-11.61-11-13.62-6.79-2.06-13-.74-17.95,4.53-3.53,3.74-4.7,8.4-4.24,13.41.6,6.62,3.86,11.49,10.09,14.1a20.45,20.45,0,0,0,14.49.49,13.71,13.71,0,0,0,6.67-4.47c-1.19-1.29-2.14-2.67-3.37-3.81a13.78,13.78,0,0,1-14.83,3.05c-4.06-1.59-6.31-4.63-7-9h27.28A14.81,14.81,0,0,0,470.9,30.73Zm-27,.19c-.47-4.47,4.34-9.16,9.76-9.52,6.05-.4,11.31,4,11.39,9.52Z"/><path class="cls-1" d="M61.8,16.57C51.6,16.5,44.2,23.68,44.16,33.67S51.43,51,61.59,51,79.1,43.84,79.13,33.81,71.92,16.63,61.8,16.57ZM72.45,37.69a10.75,10.75,0,0,1-10.78,8A11.06,11.06,0,0,1,50.33,34.59,14.84,14.84,0,0,1,51,29.41,10.81,10.81,0,0,1,60.68,22c7.44-.53,12.26,4.79,12.29,11.49A14.85,14.85,0,0,1,72.45,37.69Z"/><path class="cls-1" d="M234.1,16.57c-10.2-.07-17.6,7.1-17.66,17.09S223.69,51,233.85,51s17.52-7.15,17.56-17.19S244.22,16.64,234.1,16.57Zm11.18,16.72c-.06,4.15-1.08,7.38-3.92,9.74-3.65,3-7.82,3.41-12.09,1.67S223,39.44,222.64,35a12.94,12.94,0,0,1,1.17-7c2.14-4.4,6.55-6.63,11.92-6a10.75,10.75,0,0,1,9.15,8.34A11.86,11.86,0,0,1,245.27,33.29Z"/><path class="cls-2" d="M335.32,37.72V50h15.75V37.72Zm12.23,9.17c-.73-.15-1.17-.51-1.14-1.18a1.09,1.09,0,0,1,2.18.09C348.57,46.48,348.08,46.76,347.55,46.89Z"/></svg>