<svg xmlns="http://www.w3.org/2000/svg" width="19" height="18.969" viewBox="0 0 19 18.969">
  <defs>
    <style>
      .cls-1 {
        fill: #30a6e3;
        fill-rule: evenodd;
      }
    </style>
  </defs>
  <path class="cls-1" d="M2750.72,549.1a0.586,0.586,0,0,0-.55-0.06l-5.71,2.286-5.7-2.282h0l-0.01,0a0.587,0.587,0,0,0-.44,0l-0.01,0h-0.01l-5.92,2.371a0.6,0.6,0,0,0-.37.552v10.687a0.592,0.592,0,0,0,.59.594,0.557,0.557,0,0,0,.22-0.043l3.63-1.449a0.58,0.58,0,0,0,.33-0.77,0.59,0.59,0,0,0-.77-0.333l-2.81,1.125v-9.41l4.74-1.9v4.515a0.6,0.6,0,0,0,1.19,0v-4.514l4.74,1.9v0.892a0.6,0.6,0,0,0,.6.594,0.589,0.589,0,0,0,.59-0.594v-0.892l4.75-1.9v9.81a0.59,0.59,0,1,0,1.18,0V549.593A0.6,0.6,0,0,0,2750.72,549.1Zm0.09,17.885-3.39-3.389a5.341,5.341,0,1,0-.83.839l3.38,3.388a0.6,0.6,0,0,0,.42.175,0.606,0.606,0,0,0,.42-0.173A0.6,0.6,0,0,0,2750.81,566.987Zm-7.54-2.55a4.156,4.156,0,1,1,4.15-4.156A4.156,4.156,0,0,1,2743.27,564.437Z" transform="translate(-2732 -549.031)"/>
</svg>
