<svg id="Layer_1" data-name="Layer 1" xmlns="http://www.w3.org/2000/svg" viewBox="0 0 455 356.08"><defs><style>.cls-1{fill:#fff;}</style></defs><title>newslaunch</title><path style="fill: #e03e36" class="cls-1" d="M447.16,218.62c-5.62-3.1-12.76-2.42-19.57,1.87L301.64,299.8a7.5,7.5,0,1,0,8,12.69l125.95-79.31c2.66-1.67,4.12-1.55,4.33-1.43s1.1,1.29,1.1,4.43c0,8.45-6.27,19.81-13.42,24.31l-122.1,76.89c-6.49,4.09-12.43,5.21-16.28,3.08s-6.07-7.75-6.07-15.42c0-19.44,13.9-44.61,30.35-55l139-87.54a7.5,7.5,0,0,0,0-12.69L185.37,1.62a7.5,7.5,0,0,0-8,0L36.66,90.22C16.66,102.82,1,131.19,1,154.82v4c0,23.63,15.66,52,35.66,64.6L246,355.2a7.5,7.5,0,1,0,8-12.69L44.65,210.72C29.12,200.94,16,177.17,16,158.82v-4c0-18.35,13.12-42.12,28.65-51.9L181.37,16.83,434.43,176.18l-128.94,81.2c-20.95,13.19-37.35,42.91-37.35,67.66,0,13.49,4.91,23.64,13.82,28.55a23.94,23.94,0,0,0,11.71,3c6.23,0,13-2.18,19.82-6.48l122.1-76.89C447,266,456,249.71,456,236.18,456,228.12,452.78,221.72,447.16,218.62Z" transform="translate(-1 -0.46)"/><path style="fill: #e03e36" class="cls-1" d="M354.66,183.68a7.5,7.5,0,0,0,4-13.85L185.37,60.7a7.5,7.5,0,1,0-8,12.69l173.3,109.13A7.47,7.47,0,0,0,354.66,183.68Z" transform="translate(-1 -0.46)"/><path style="fill: #e03e36" class="cls-1" d="M324.68,203.58a7.5,7.5,0,0,0,4-13.85l-73.21-45.9a7.5,7.5,0,0,0-8,12.71l73.21,45.9A7.46,7.46,0,0,0,324.68,203.58Z" transform="translate(-1 -0.46)"/><path style="fill: #e03e36" class="cls-1" d="M224.9,163.56A7.5,7.5,0,1,0,217,176.28l73.77,46.06a7.5,7.5,0,1,0,7.94-12.72Z" transform="translate(-1 -0.46)"/><path style="fill: #e03e36" class="cls-1" d="M146.21,80.33,83.88,119.58a7.5,7.5,0,0,0,0,12.72l74.34,46.22a7.5,7.5,0,0,0,8-.07l16.56-10.7a7.5,7.5,0,0,0-8.14-12.6l-12.56,8.12L102,125.89l48.2-30.35,59.24,37.15-6.91,4.46a7.5,7.5,0,0,0,8.14,12.6l16.8-10.86a7.5,7.5,0,0,0-.09-12.65L154.19,80.32A7.5,7.5,0,0,0,146.21,80.33Z" transform="translate(-1 -0.46)"/><path style="fill: #e03e36" class="cls-1" d="M271.09,239.85a7.5,7.5,0,0,0-2.41-10.33L194.34,183.3A7.5,7.5,0,1,0,186.42,196l74.34,46.22a7.5,7.5,0,0,0,10.33-2.41Z" transform="translate(-1 -0.46)"/><path style="fill: #e03e36" class="cls-1" d="M54.53,143.86a7.5,7.5,0,0,0,2.41,10.33L240.41,268.27a7.5,7.5,0,1,0,7.92-12.74L64.86,141.46A7.5,7.5,0,0,0,54.53,143.86Z" transform="translate(-1 -0.46)"/></svg>