<svg xmlns="http://www.w3.org/2000/svg" width="64" height="64" viewBox="0 0 64 64">
  <defs>
    <style>
      .cls-1 {
        fill: #72d0f4;
        fill-rule: evenodd;
      }
    </style>
  </defs>
  <path class="cls-1" d="M440.29,1201.26a1.069,1.069,0,0,0,0,1.51l2.263,2.26a1.073,1.073,0,0,0,1.509,0,1.07,1.07,0,0,0,0-1.51l-2.263-2.26A1.061,1.061,0,0,0,440.29,1201.26Zm11.444-18.35v10.23h-4.266v-5.34a1.067,1.067,0,1,0-2.134,0v6.4a1.069,1.069,0,0,0,1.067,1.07h6.4a1.069,1.069,0,0,0,1.067-1.07v-9.16l0.312,0.32a1.073,1.073,0,0,0,1.509,0,1.068,1.068,0,0,0,0-1.51l-2.133-2.14h0l-9.6-9.6a1.067,1.067,0,1,0-1.508,1.51Zm-23.778-1.2h0l-9.6-9.6a1.079,1.079,0,0,0-1.509,0l-9.6,9.6h0l-2.132,2.14a1.067,1.067,0,1,0,1.508,1.51l0.313-.32v9.16a1.068,1.068,0,0,0,1.066,1.07h7.467a1.069,1.069,0,0,0,1.067-1.07v-5.33h2.133v5.33a1.069,1.069,0,0,0,1.067,1.07H427.2a1.068,1.068,0,0,0,1.066-1.07v-9.16l0.313,0.32a1.072,1.072,0,0,0,1.508,0,1.068,1.068,0,0,0,0-1.51Zm-1.822,11.43H420.8v-5.34a1.068,1.068,0,0,0-1.066-1.07h-4.267a1.069,1.069,0,0,0-1.067,1.07v5.34h-5.333v-10.23l8.534-8.53,8.533,8.53v10.23h0Zm-8.534-29.87a21.335,21.335,0,1,0,21.334,21.33A21.357,21.357,0,0,0,417.6,1163.27Zm0,40.53a19.2,19.2,0,1,1,19.2-19.2A19.22,19.22,0,0,1,417.6,1203.8Zm29.363,2.62a1.06,1.06,0,0,0-.754-0.31h0a1.035,1.035,0,0,0-.755.32l-3.008,3.02a1.065,1.065,0,1,0,1.512,1.5l2.254-2.26,6.719,6.72a3.2,3.2,0,1,1-4.525,4.52l-12.64-12.64a1.067,1.067,0,0,0-1.508,1.51l12.64,12.64a5.332,5.332,0,1,0,7.541-7.54ZM443.2,1184.6a25.6,25.6,0,1,0-25.6,25.6A25.634,25.634,0,0,0,443.2,1184.6Zm-25.6,23.47a23.47,23.47,0,1,1,23.467-23.47A23.5,23.5,0,0,1,417.6,1208.07Z" transform="translate(-392 -1159)"/>
</svg>
