<svg xmlns="http://www.w3.org/2000/svg" width="92" height="81" viewBox="0 0 92 81">
  <defs>
    <style>
      .cls-1 {
        fill: #fff;
        fill-rule: evenodd;
      }
    </style>
  </defs>
  <path class="cls-1" d="M4279,507.224a9.749,9.749,0,0,0,9.7,9.776h72.6a9.748,9.748,0,0,0,9.7-9.776V445.776a9.749,9.749,0,0,0-9.7-9.776h-72.6a9.748,9.748,0,0,0-9.7,9.776v61.448Zm82.3,5.134h-72.6a5.127,5.127,0,0,1-5.09-5.134v-4.76l17.44-17.583,14.91,15.025a2.278,2.278,0,0,0,3.25,0l26.92-27.131,20.26,20.424v14.025A5.127,5.127,0,0,1,4361.3,512.358Zm-72.6-71.716h72.6a5.127,5.127,0,0,1,5.09,5.134v40.848l-18.64-18.775a2.288,2.288,0,0,0-3.26,0l-26.92,27.131-14.9-15.025a2.289,2.289,0,0,0-3.26,0l-15.8,15.934V445.776A5.127,5.127,0,0,1,4288.7,440.642Zm18.82,28.249a11.8,11.8,0,1,0-11.71-11.8A11.775,11.775,0,0,0,4307.52,468.891Zm0-18.966a7.162,7.162,0,1,1-7.11,7.162A7.135,7.135,0,0,1,4307.52,449.925Z" transform="translate(-4279 -436)"/>
</svg>
