<svg xmlns="http://www.w3.org/2000/svg" xmlns:xlink="http://www.w3.org/1999/xlink" preserveAspectRatio="xMidYMid" width="15.937" height="23" viewBox="0 0 15.937 23">
  <defs>
    <style>
      .cls-1 {
        fill: #959595;
        fill-rule: evenodd;
      }
    </style>
  </defs>
  <path d="M11.635,23.000 L9.578,23.000 L-0.003,23.000 L-0.003,4.322 L4.788,4.322 L4.788,-0.001 L11.635,-0.001 L11.635,4.322 L11.635,6.321 L11.635,8.265 L15.940,8.265 L15.940,23.000 L11.635,23.000 ZM6.845,21.002 L9.578,21.002 L9.578,19.030 L6.845,19.030 L6.845,21.002 ZM6.845,17.032 L9.578,17.032 L9.578,14.647 L6.845,14.647 L6.845,17.032 ZM6.845,12.648 L9.578,12.648 L9.578,10.263 L6.845,10.263 L6.845,12.648 ZM2.054,21.002 L4.788,21.002 L4.788,19.030 L2.054,19.030 L2.054,21.002 ZM2.054,17.032 L4.788,17.032 L4.788,14.647 L2.054,14.647 L2.054,17.032 ZM2.054,12.648 L4.788,12.648 L4.788,10.263 L2.054,10.263 L2.054,12.648 ZM2.054,6.321 L2.054,8.265 L4.788,8.265 L4.788,6.321 L2.054,6.321 ZM9.578,1.998 L6.845,1.998 L6.845,4.322 L9.578,4.322 L9.578,1.998 ZM6.845,6.321 L6.845,8.265 L9.578,8.265 L9.578,6.321 L6.845,6.321 ZM13.883,10.263 L11.635,10.263 L11.635,12.648 L13.883,12.648 L13.883,10.263 ZM13.883,14.647 L11.635,14.647 L11.635,17.032 L13.883,17.032 L13.883,14.647 ZM13.883,19.030 L11.635,19.030 L11.635,21.002 L13.883,21.002 L13.883,19.030 Z" class="cls-1"/>
</svg>
