<svg xmlns="http://www.w3.org/2000/svg" xmlns:xlink="http://www.w3.org/1999/xlink" preserveAspectRatio="xMidYMid" width="33" height="43" viewBox="0 0 33 43">
  <defs>
    <style>
      .cls-1 {
        fill: #da2e2e;
        fill-rule: evenodd;
      }
    </style>
  </defs>
  <path d="M0.000,43.000 L0.000,39.000 L3.000,39.000 L3.000,36.000 L3.000,32.000 L3.000,28.000 L3.000,24.000 L3.000,20.000 L3.000,16.000 L3.000,12.000 L3.000,8.000 L3.000,4.000 L3.000,0.000 L7.000,0.000 L26.000,0.000 L29.000,0.000 L30.000,0.000 L30.000,32.000 L30.000,39.000 L33.000,39.000 L33.000,43.000 L0.000,43.000 ZM10.000,39.000 L23.000,39.000 L23.000,36.000 L10.000,36.000 L10.000,39.000 ZM7.000,32.000 L10.000,32.000 L23.000,32.000 L26.000,32.000 L26.000,28.000 L7.000,28.000 L7.000,32.000 ZM7.000,24.000 L26.000,24.000 L26.000,20.000 L7.000,20.000 L7.000,24.000 ZM7.000,16.000 L26.000,16.000 L26.000,12.000 L7.000,12.000 L7.000,16.000 ZM7.000,4.000 L7.000,8.000 L26.000,8.000 L26.000,4.000 L7.000,4.000 Z" class="cls-1"/>
</svg>
