<svg xmlns="http://www.w3.org/2000/svg" xmlns:xlink="http://www.w3.org/1999/xlink" preserveAspectRatio="xMidYMid" width="36" height="36" viewBox="0 0 36 36">
  <defs>
    <style>
      .cls-1 {
        fill: #da2e2e;
        fill-rule: evenodd;
      }
    </style>
  </defs>
  <path d="M11.250,18.000 L6.750,18.000 L6.750,13.500 L11.250,13.500 L11.250,18.000 ZM20.250,13.500 L15.750,13.500 L15.750,18.000 L20.250,18.000 L20.250,13.500 ZM29.250,13.500 L24.750,13.500 L24.750,18.000 L29.250,18.000 L29.250,13.500 ZM11.250,20.250 L6.750,20.250 L6.750,24.750 L11.250,24.750 L11.250,20.250 ZM20.250,20.250 L15.750,20.250 L15.750,24.750 L20.250,24.750 L20.250,20.250 ZM29.250,20.250 L24.750,20.250 L24.750,24.750 L29.250,24.750 L29.250,20.250 ZM11.250,27.000 L6.750,27.000 L6.750,31.500 L11.250,31.500 L11.250,27.000 ZM20.250,27.000 L15.750,27.000 L15.750,31.500 L20.250,31.500 L20.250,27.000 ZM9.000,6.750 C10.243,6.750 11.250,5.744 11.250,4.500 L11.250,2.250 C11.250,1.006 10.243,0.000 9.000,0.000 C7.757,0.000 6.750,1.006 6.750,2.250 L6.750,4.500 C6.750,5.744 7.757,6.750 9.000,6.750 ZM36.000,4.500 L36.000,36.000 L0.000,36.000 L0.000,4.500 L5.625,4.500 C5.625,6.361 7.139,7.875 9.000,7.875 C10.861,7.875 12.375,6.361 12.375,4.500 L23.625,4.500 C23.625,6.361 25.139,7.875 27.000,7.875 C28.861,7.875 30.375,6.361 30.375,4.500 L36.000,4.500 ZM33.750,11.250 L2.250,11.250 L2.250,33.750 L33.750,33.750 L33.750,11.250 ZM27.000,6.750 C28.244,6.750 29.250,5.744 29.250,4.500 L29.250,2.250 C29.250,1.006 28.244,0.000 27.000,0.000 C25.756,0.000 24.750,1.006 24.750,2.250 L24.750,4.500 C24.750,5.744 25.756,6.750 27.000,6.750 Z" class="cls-1"/>
</svg>
