<svg xmlns="http://www.w3.org/2000/svg" xmlns:xlink="http://www.w3.org/1999/xlink" preserveAspectRatio="xMidYMid" width="18" height="18" viewBox="0 0 18 18">
  <defs>
    <style>
      .cls-1 {
        fill: #959595;
        fill-rule: evenodd;
      }
    </style>
  </defs>
  <path d="M16.363,18.000 L16.363,16.364 L18.000,16.364 L18.000,18.000 L16.363,18.000 ZM9.818,-0.000 L18.000,-0.000 L18.000,8.182 L9.818,8.182 L9.818,-0.000 ZM11.455,6.545 L16.363,6.545 L16.363,1.636 L11.455,1.636 L11.455,6.545 ZM13.091,3.273 L14.727,3.273 L14.727,4.909 L13.091,4.909 L13.091,3.273 ZM-0.000,9.818 L8.182,9.818 L8.182,18.000 L-0.000,18.000 L-0.000,9.818 ZM1.636,16.351 L6.545,16.351 L6.545,11.455 L1.636,11.455 L1.636,16.351 ZM3.273,13.091 L4.909,13.091 L4.909,14.727 L3.273,14.727 L3.273,13.091 ZM-0.000,-0.000 L8.182,-0.000 L8.182,8.182 L-0.000,8.182 L-0.000,-0.000 ZM1.636,6.545 L6.545,6.545 L6.545,1.636 L1.636,1.636 L1.636,6.545 ZM3.273,3.273 L4.909,3.273 L4.909,4.909 L3.273,4.909 L3.273,3.273 ZM14.727,11.455 L16.363,11.455 L16.363,9.818 L18.000,9.818 L18.000,14.727 L13.091,14.727 L13.091,13.091 L11.455,13.091 L11.455,18.000 L9.818,18.000 L9.818,9.818 L14.727,9.818 L14.727,11.455 ZM14.727,18.000 L13.091,18.000 L13.091,16.364 L14.727,16.364 L14.727,18.000 Z" class="cls-1"/>
</svg>
