<svg xmlns="http://www.w3.org/2000/svg" xmlns:xlink="http://www.w3.org/1999/xlink" preserveAspectRatio="xMidYMid" width="19.938" height="16" viewBox="0 0 19.938 16">
  <defs>
    <style>
      .cls-1 {
        fill: #959595;
        fill-rule: evenodd;
      }
    </style>
  </defs>
  <path d="M17.248,16.000 L2.703,16.000 C1.219,16.000 0.011,14.773 0.011,13.265 L0.011,2.735 C0.011,1.227 1.219,-0.000 2.703,-0.000 L17.248,-0.000 C18.733,-0.000 19.940,1.227 19.940,2.735 L19.940,13.265 C19.940,14.773 18.733,16.000 17.248,16.000 ZM2.703,14.000 L17.248,14.000 C17.647,14.000 17.972,13.670 17.972,13.265 L17.972,4.289 L12.423,9.928 C11.861,10.498 11.121,10.783 10.372,10.783 C9.593,10.783 8.807,10.476 8.205,9.864 L1.979,3.537 L1.979,13.265 C1.979,13.670 2.304,14.000 2.703,14.000 ZM3.250,2.000 L9.597,8.450 C10.010,8.869 10.654,8.898 11.032,8.514 L17.409,2.033 C17.356,2.020 17.305,2.000 17.248,2.000 L3.250,2.000 Z" class="cls-1"/>
</svg>
