<svg xmlns="http://www.w3.org/2000/svg" xmlns:xlink="http://www.w3.org/1999/xlink" preserveAspectRatio="xMidYMid" width="17.906" height="21.968" viewBox="0 0 17.906 21.968">
  <defs>
    <style>
      .cls-1 {
        fill: #959595;
        fill-rule: evenodd;
      }
    </style>
  </defs>
  <path d="M14.113,21.965 L3.801,21.965 C1.705,21.965 -0.001,20.215 -0.001,18.064 L-0.001,11.569 C-0.001,9.706 1.280,8.148 2.985,7.763 L2.985,6.135 C2.985,2.756 5.664,0.008 8.957,0.008 C12.250,0.008 14.929,2.756 14.929,6.135 L14.929,7.763 C16.634,8.148 17.915,9.706 17.915,11.569 L17.915,18.064 C17.915,20.215 16.209,21.965 14.113,21.965 ZM8.957,2.050 C6.762,2.050 4.976,3.883 4.976,6.135 L4.976,7.667 L12.938,7.667 L12.938,6.135 C12.938,3.883 11.152,2.050 8.957,2.050 ZM15.925,11.569 C15.925,10.544 15.112,9.710 14.113,9.710 L3.801,9.710 C2.802,9.710 1.990,10.544 1.990,11.569 L1.990,18.064 C1.990,19.089 2.802,19.923 3.801,19.923 L14.113,19.923 C15.112,19.923 15.925,19.089 15.925,18.064 L15.925,11.569 ZM9.952,15.355 L9.952,16.756 C9.952,17.320 9.507,17.777 8.957,17.777 C8.408,17.777 7.962,17.320 7.962,16.756 L7.962,15.355 C7.471,15.023 7.146,14.453 7.146,13.805 C7.146,12.779 7.957,11.947 8.957,11.947 C9.957,11.947 10.768,12.779 10.768,13.805 C10.768,14.453 10.443,15.022 9.952,15.355 Z" class="cls-1"/>
</svg>
