<svg xmlns="http://www.w3.org/2000/svg" xmlns:xlink="http://www.w3.org/1999/xlink" preserveAspectRatio="xMidYMid" width="21" height="21" viewBox="0 0 21 21">
  <defs>
    <style>
      .cls-1 {
        fill: #969696;
        fill-rule: evenodd;
      }
    </style>
  </defs>
  <path d="M17.137,21.002 C16.939,21.002 16.754,20.968 16.585,20.899 C16.496,20.871 16.342,20.824 16.122,20.758 C15.513,20.600 14.975,20.446 14.541,20.305 C14.085,20.159 13.401,19.881 12.454,19.457 C11.504,19.031 10.646,18.569 9.904,18.085 C9.160,17.599 8.304,16.937 7.286,16.060 C6.263,15.181 5.341,14.202 4.546,13.151 C3.761,12.114 2.954,10.813 2.148,9.286 C1.344,7.763 0.639,6.088 0.055,4.309 L0.025,4.194 C-0.022,3.958 -0.026,3.729 0.012,3.511 C0.027,3.337 0.072,3.160 0.147,2.985 C0.222,2.810 0.355,2.600 0.604,2.262 C0.837,1.946 1.115,1.650 1.432,1.383 C1.767,1.101 2.228,0.838 2.840,0.581 C3.421,0.336 4.083,0.151 4.805,0.030 C5.029,-0.027 5.330,-0.007 5.639,0.105 C5.833,0.162 6.032,0.257 6.248,0.394 C6.407,0.496 6.675,0.683 7.050,0.957 C7.453,1.252 7.823,1.582 8.149,1.939 C8.491,2.313 8.803,2.771 9.104,3.338 C9.428,3.952 9.609,4.608 9.643,5.291 C9.703,5.692 9.554,6.149 9.216,6.500 C8.771,6.996 8.386,7.499 8.071,7.996 C7.894,8.276 7.795,8.454 7.741,8.561 C7.854,8.829 8.200,9.452 9.252,10.708 C10.188,11.826 11.328,12.745 12.647,13.445 C12.975,13.303 13.599,12.940 14.666,12.015 C15.158,11.657 15.662,11.557 16.158,11.682 C16.773,11.836 17.356,12.054 17.892,12.330 C18.420,12.601 18.859,12.877 19.196,13.149 C19.519,13.411 19.817,13.692 20.081,13.987 C20.365,14.306 20.527,14.508 20.628,14.668 C20.719,14.815 20.782,14.924 20.817,14.995 C20.951,15.324 21.002,15.583 21.002,15.841 L20.987,16.018 C20.865,16.685 20.678,17.306 20.431,17.862 C20.184,18.416 19.947,18.850 19.704,19.191 C19.453,19.541 19.165,19.854 18.847,20.122 C18.538,20.381 18.318,20.547 18.189,20.628 C18.052,20.712 17.928,20.777 17.810,20.826 C17.598,20.942 17.368,21.002 17.137,21.002 ZM1.965,3.807 C2.507,5.438 3.155,6.972 3.892,8.367 C4.648,9.800 5.397,11.009 6.118,11.962 C6.829,12.903 7.655,13.779 8.572,14.567 C9.510,15.375 10.321,16.004 10.983,16.435 C11.638,16.864 12.404,17.276 13.260,17.658 C14.129,18.048 14.764,18.307 15.147,18.431 C15.553,18.562 16.054,18.705 16.655,18.861 C16.843,18.917 16.985,18.960 17.087,18.991 C17.103,18.982 17.124,18.970 17.146,18.956 C17.226,18.906 17.371,18.788 17.578,18.614 C17.769,18.453 17.945,18.261 18.100,18.046 C18.262,17.818 18.440,17.487 18.629,17.062 C18.795,16.689 18.926,16.270 19.018,15.814 C19.005,15.791 18.983,15.755 18.957,15.713 C18.904,15.632 18.785,15.495 18.611,15.300 C18.419,15.086 18.198,14.876 17.956,14.680 C17.725,14.494 17.399,14.292 16.990,14.082 C16.625,13.894 16.228,13.742 15.808,13.627 C14.529,14.730 13.525,15.334 12.721,15.474 L12.406,15.529 L12.118,15.387 C10.406,14.547 8.933,13.398 7.740,11.972 C6.109,10.026 5.813,9.196 5.737,8.689 L5.726,8.543 C5.726,8.157 5.910,7.723 6.407,6.941 C6.759,6.385 7.183,5.826 7.666,5.277 C7.624,4.886 7.525,4.570 7.361,4.259 C7.144,3.848 6.918,3.514 6.694,3.268 C6.456,3.007 6.184,2.765 5.886,2.547 C5.558,2.307 5.325,2.143 5.187,2.054 C5.110,2.006 5.073,1.992 5.073,1.992 L5.048,1.986 C4.475,2.092 4.010,2.226 3.606,2.396 C3.082,2.617 2.825,2.787 2.702,2.890 C2.505,3.057 2.333,3.238 2.192,3.430 C2.095,3.560 2.023,3.661 1.977,3.734 L1.965,3.807 ZM7.679,5.427 C7.679,5.444 7.680,5.460 7.683,5.476 C7.682,5.460 7.681,5.444 7.679,5.427 ZM5.203,1.958 C5.179,1.962 5.155,1.966 5.131,1.971 C5.154,1.968 5.178,1.964 5.203,1.958 Z" class="cls-1"/>
</svg>
