<svg xmlns="http://www.w3.org/2000/svg" xmlns:xlink="http://www.w3.org/1999/xlink" preserveAspectRatio="xMidYMid" width="54" height="26.969" viewBox="0 0 54 26.969">
  <defs>
    <style>
      .cls-1 {
        fill: #da2e2e;
        fill-rule: evenodd;
      }
    </style>
  </defs>
  <path d="M48.858,5.089 C47.656,4.686 46.886,3.086 45.666,1.763 C48.388,0.837 51.813,-1.571 53.395,1.549 C55.364,5.435 52.046,6.149 48.858,5.089 ZM48.204,14.765 C48.216,15.879 46.428,16.044 45.456,16.657 C45.272,16.775 45.190,17.038 45.057,17.239 C45.353,17.489 45.645,17.750 45.939,18.005 C46.553,18.474 48.004,17.703 47.950,19.006 C47.891,20.396 46.704,19.721 45.932,19.686 C39.449,19.446 32.638,19.831 28.333,24.691 C24.984,28.479 23.682,26.820 20.517,25.065 C17.656,23.479 15.126,20.069 10.931,21.419 C10.823,21.459 10.647,21.572 10.657,21.616 C10.698,21.778 10.808,21.925 10.887,22.080 C11.399,22.333 11.905,22.590 12.414,22.846 C13.233,22.811 13.942,23.275 13.985,23.916 C14.044,24.753 13.062,24.760 12.412,24.959 C11.959,25.889 11.153,26.255 10.127,26.260 C8.359,27.176 8.751,25.114 7.894,24.772 C6.993,24.306 6.407,23.756 7.259,22.782 C5.763,21.648 4.363,22.129 2.685,22.620 C0.922,23.130 -0.641,22.944 0.247,20.067 C1.518,15.938 4.248,12.563 5.806,8.574 C7.185,5.047 10.529,4.197 14.251,5.354 C15.717,5.810 16.753,4.975 17.915,4.170 C22.725,0.817 24.058,1.186 28.302,5.307 C28.780,5.771 29.320,6.151 29.901,6.475 C30.134,6.601 30.392,6.684 30.635,6.794 C31.004,6.961 31.367,7.140 31.758,7.278 C32.114,7.396 32.482,7.484 32.853,7.585 C33.160,7.668 33.460,7.764 33.767,7.833 C34.373,7.973 34.984,8.090 35.585,8.211 C35.642,8.223 35.701,8.235 35.754,8.247 L35.757,8.243 C35.795,8.250 35.831,8.262 35.872,8.267 C35.445,7.406 35.647,6.942 36.253,6.826 C36.455,6.792 36.701,6.792 36.985,6.834 C37.949,6.971 38.868,7.366 39.830,7.553 C40.979,7.776 42.619,6.998 43.163,8.378 C43.235,8.567 43.253,8.719 43.230,8.844 C43.225,8.859 43.204,8.871 43.197,8.896 C42.931,9.632 40.871,9.107 41.063,10.452 C41.089,10.464 41.112,10.472 41.142,10.484 C41.119,10.501 41.101,10.506 41.078,10.526 C42.043,10.408 42.885,10.476 43.547,10.832 C43.639,10.879 43.703,10.980 43.788,11.038 C44.013,11.191 44.238,11.345 44.407,11.574 C44.652,11.905 44.839,12.313 44.975,12.813 C45.085,13.221 45.348,13.854 45.625,13.903 C46.584,14.058 48.188,13.290 48.204,14.765 Z" class="cls-1"/>
</svg>
