<svg xmlns="http://www.w3.org/2000/svg" xmlns:xlink="http://www.w3.org/1999/xlink" preserveAspectRatio="xMidYMid" width="16.937" height="21.968" viewBox="0 0 16.937 21.968">
  <defs>
    <style>
      .cls-1 {
        fill: #959595;
        fill-rule: evenodd;
      }
    </style>
  </defs>
  <path d="M15.965,21.967 C15.423,21.967 14.984,21.509 14.984,20.945 L14.984,18.639 C14.984,15.757 12.506,13.416 9.449,13.382 L9.449,15.869 C9.449,16.433 9.011,16.890 8.469,16.890 C7.928,16.890 7.489,16.433 7.489,15.869 L7.489,13.382 C4.432,13.416 1.954,15.757 1.954,18.639 L1.954,20.945 C1.954,21.509 1.515,21.967 0.974,21.967 C0.433,21.967 -0.006,21.509 -0.006,20.945 L-0.006,18.639 C-0.006,14.611 3.385,11.333 7.554,11.333 L9.385,11.333 C13.554,11.333 16.945,14.611 16.945,18.639 L16.945,20.945 C16.945,21.509 16.506,21.967 15.965,21.967 ZM8.469,10.642 C5.656,10.642 3.366,8.257 3.366,5.326 C3.366,2.394 5.656,0.009 8.469,0.009 C11.283,0.009 13.572,2.394 13.572,5.326 C13.572,8.257 11.283,10.642 8.469,10.642 ZM8.469,2.052 C6.737,2.052 5.327,3.521 5.327,5.326 C5.327,7.131 6.737,8.600 8.469,8.600 C10.202,8.600 11.611,7.131 11.611,5.326 C11.611,3.521 10.202,2.052 8.469,2.052 ZM8.469,17.581 C9.011,17.581 9.449,18.039 9.449,18.603 L9.449,20.164 C9.449,20.728 9.011,21.186 8.469,21.186 C7.928,21.186 7.489,20.728 7.489,20.164 L7.489,18.603 C7.489,18.039 7.928,17.581 8.469,17.581 Z" class="cls-1"/>
</svg>
